<svg xmlns="http://www.w3.org/2000/svg" width="64" height="64" viewBox="0 0 512 512">
  <defs>
    <linearGradient id="a" x1="8.0802422" x2="509.0553" y1="7.9205542" y2="508.89563" gradientTransform="scale(.99006931 1.0100303)" gradientUnits="userSpaceOnUse">
      <stop offset="0%" stop-color="#3498db"/>
      <stop offset="100%" stop-color="#2980b9"/>
    </linearGradient>
    <filter id="b" width="1.1071429" height="1.1294643" x="-.05357143" y="-.05357143">
      <feGaussianBlur in="SourceAlpha" stdDeviation="10"/>
      <feOffset dy="10" result="offsetblur"/>
      <feComponentTransfer>
        <feFuncA slope=".3" type="linear"/>
      </feComponentTransfer>
      <feMerge>
        <feMergeNode/>
        <feMergeNode in="SourceGraphic"/>
      </feMerge>
    </filter>
  </defs>
  <rect width="448" height="448" x="32" y="32" fill="url(#a)" filter="url(#b)" rx="100" ry="100"/>
  <path fill="#fff" fill-opacity=".15" d="M256 100c-76 0-136 20-136 80v100c0 100 136 160 136 160s136-60 136-160V180c0-60-60-80-136-80z"/>
  <g fill="none" stroke="#fff" stroke-linecap="round" stroke-linejoin="round" stroke-width="35" transform="translate(0 20)">
    <path d="m150 220 50 100 56-120 56 120 50-100"/>
    <circle cx="256" cy="200" r="10" fill="#fff" stroke="none"/>
  </g>
  <circle cx="360" cy="150" r="25" fill="none" stroke="#fff" stroke-width="8" opacity=".8"/>
  <path stroke="#fff" stroke-linecap="round" stroke-width="8" d="m378 168 17 17" opacity=".8"/>
</svg>
